<?xml version="1.0" encoding="UTF-8"?>
<svg xmlns="http://www.w3.org/2000/svg" viewBox="0 0 24 24" width="24" height="24">
  <path d="M15 12c2.21 0 4-1.79 4-4s-1.79-4-4-4-4 1.79-4 4 1.79 4 4 4zm0-6c1.1 0 2 .9 2 2s-.9 2-2 2-2-.9-2-2 .9-2 2-2zm0 7c-2.67 0-8 1.34-8 4v3h16v-3c0-2.66-5.33-4-8-4zm6 5H9v-.99c.2-.72 3.3-2.01 6-2.01s5.8 1.29 6 2v1zM9 12c1.66 0 3-1.34 3-3s-1.34-3-3-3-3 1.34-3 3 1.34 3 3 3zm0-4c.55 0 1 .45 1 1s-.45 1-1 1-1-.45-1-1 .45-1 1-1zM4 18c.22-.72 3.31-2 6-2 0-.7.13-1.37.35-1.99C7.62 13.91 2 15.27 2 18v2h6v-2c0 0-.91-.54-4-2z" fill="#000"/>
  <path d="M5 9h2v2h2v-2h2V7h-2V5H7v2H5v2z" fill="#000"/>
</svg>
